PathFileType	4	(X/Y/Z)	RBDS03\RBDS03runT25.trc																																																																																														
DataRate	CameraRate	NumFrames	NumMarkers	Units	OrigDataRate	OrigDataStartFrame	OrigNumFrames																																																																																										
150	150	10	32	mm	150	0	4500																																																																																										
Frame#	Time	L.ASIS			L.Heel.Bottom			L.Heel.Lateral			L.Heel.Top			L.Iliac.Crest			L.MT1			L.MT5			L.PSIS			L.Shank.Bottom.Lateral			L.Shank.Bottom.Medial			L.Shank.Top.Lateral			L.Shank.Top.Medial			L.Thigh.Bottom.Lateral			L.Thigh.Bottom.Medial			L.Thigh.Top.Lateral			L.Thigh.Top.Medial			R.ASIS			R.MT5			R.Heel.Bottom			R.Heel.Lateral			R.Heel.Top			R.Iliac.Crest			R.MT1			R.PSIS			R.Shank.Bottom.Lateral			R.Shank.Bottom.Medial			R.Shank.Top.Lateral			R.Shank.Top.Medial			R.Thigh.Bottom.Lateral			R.Thigh.Bottom.Medial			R.Thigh.Top.Lateral			R.Thigh.Top.Medial		
		X1	Y1	Z1	X2	Y2	Z2	X3	Y3	Z3	X4	Y4	Z4	X5	Y5	Z5	X6	Y6	Z6	X7	Y7	Z7	X8	Y8	Z8	X9	Y9	Z9	X10	Y10	Z10	X11	Y11	Z11	X12	Y12	Z12	X13	Y13	Z13	X14	Y14	Z14	X15	Y15	Z15	X16	Y16	Z16	X17	Y17	Z17	X18	Y18	Z18	X19	Y19	Z19	X20	Y20	Z20	X21	Y21	Z21	X22	Y22	Z22	X23	Y23	Z23	X24	Y24	Z24	X25	Y25	Z25	X26	Y26	Z26	X27	Y27	Z27	X28	Y28	Z28	X29	Y29	Z29	X30	Y30	Z30	X31	Y31	Z31	X32	Y32	Z32
																																																																																																	
1	0	2259.674456	1004.210305	951.4515519	1878.070045	374.7262943	977.763852	1903.844736	354.7408892	928.7684368	1928.176081	383.4017574	980.1057713	2191.60816	1071.643354	898.5649166	1980.946944	172.208542	994.9262123	1959.736659	210.7407265	893.2447962	2087.451881	1035.187163	999.2893111	2033.88836	369.214579	917.3761066	2015.847199	406.0287685	953.6772112	2099.577498	413.6365856	904.8143098	2082.107258	450.6686103	940.1798637	2341.867843	600.9841757	893.4706946	2278.199386	582.0999788	925.2714285	2301.466152	701.1411777	873.0645338	2238.280442	681.6988596	896.42553	2246.323494	1009.78431	1164.490134	2028.173849	43.60115697	1144.954251	1849.799983	62.62060376	1052.357612	1883.229429	79.65491665	1102.064899	1868.239786	108.5046316	1051.902568	2187.460829	1069.15692	1201.984019	2062.056632	47.89519132	1038.767708	2082.679408	1035.910863	1081.02257	1965.870821	171.8598944	1114.760562	1937.190918	199.4211219	1081.355671	2004.614596	244.1586589	1138.558679	1972.719017	268.8796677	1102.846028	2182.074409	583.5952527	1188.101958	2117.609605	579.3340406	1154.584655	2162.769838	691.4307174	1208.246445	2102.024712	686.547675	1175.895286
2	0.006666667	2260.825461	1010.645636	950.9600124	1888.826548	356.9968902	981.4090489	1915.399435	338.5872199	932.2921327	1937.931492	369.2134793	983.2106515	2192.167859	1078.981775	898.6762565	2005.704339	163.3703442	998.60119	1980.774932	199.3184021	896.8326495	2088.82394	1041.716152	999.9860947	2044.892255	361.2929875	920.1387717	2024.923755	397.3472294	956.2016378	2108.119018	408.7954426	907.2022538	2088.729122	445.0725195	942.1851087	2344.772302	608.5253353	894.4130482	2281.158024	589.5035405	926.3126484	2303.752996	708.4773037	873.5333493	2240.803051	688.8146619	897.3657194	2248.796146	1014.53051	1164.331911	2011.343718	43.24937164	1145.098086	1835.491587	70.40952473	1052.941548	1869.366751	85.03014999	1103.111934	1855.414514	115.5268858	1053.646327	2191.462861	1075.811161	1201.862187	2045.540462	47.34947128	1038.197253	2084.849106	1042.100135	1081.938123	1952.332309	177.640819	1116.295258	1923.557227	204.7485482	1082.77804	1990.860377	250.2000013	1139.572175	1958.705256	274.5389073	1103.733102	2172.205353	589.6260253	1187.15794	2107.521779	587.4075349	1153.904065	2156.424421	697.8017667	1207.289922	2095.5229	694.8875531	1175.189384
3	0.013333333	2262.001838	1017.101473	950.416577	1899.94767	339.2070098	985.0334264	1927.300282	322.379779	935.8025983	1947.990064	354.9196168	986.3054021	2192.756426	1086.338749	898.7795264	2030.558143	154.7028858	1002.265888	2002.022334	188.0110499	900.4150915	2090.257237	1048.282129	1000.664559	2056.043362	353.3117975	922.9048988	2034.166065	388.5496335	958.7405607	2116.724198	403.8721807	909.5863409	2095.435301	439.3406142	944.2125771	2347.455533	615.9836018	895.3829496	2283.899654	596.8391536	927.3863917	2305.86422	715.742013	874.0555045	2243.145857	695.8889769	898.3603522	2251.329812	1019.30887	1164.096479	1994.653982	43.02604702	1145.286106	1821.477876	78.47944624	1053.559833	1855.766056	90.66815999	1104.166811	1842.921818	122.7707242	1055.393299	2195.522051	1082.466592	1201.711124	2029.168236	46.88619406	1037.675764	2087.081287	1048.335557	1082.831155	1939.030047	183.5363628	1117.867164	1910.198919	210.1735489	1084.187292	1977.272603	256.37878	1140.632154	1944.933385	280.3040602	1104.607756	2162.414489	595.8029248	1186.303248	2097.548991	595.6159486	1153.276488	2150.14521	704.2994968	1206.386155	2089.125875	703.3414399	1174.491391
4	0.02	2263.229785	1023.605091	949.7735512	1911.777297	321.2682148	988.6224216	1939.872855	306.0397704	939.2902613	1958.638576	340.3962946	989.3838768	2193.40034	1093.743868	898.8723795	2055.61953	146.3348195	1005.911228	2023.689188	176.8942299	903.9890554	2091.808138	1054.926948	1001.311087	2067.483985	345.194541	925.677232	2043.734833	379.5087964	961.3106806	2125.458502	398.7730016	911.9643425	2102.311022	433.331317	946.2868612	2349.728402	623.2785356	896.4017595	2286.232843	604.0373743	928.5087062	2307.652449	722.8679011	874.6764145	2245.153131	702.8789742	899.4459872	2253.979131	1024.158687	1163.713045	1978.246186	43.05528144	1145.560795	1808.018541	87.07294005	1054.255907	1842.663688	96.80089146	1105.246012	1831.052353	130.4278397	1057.152071	2199.714107	1089.14207	1201.499253	2013.070179	46.5875713	1037.250064	2089.43111	1054.668617	1083.683599	1926.176733	189.6436302	1119.510575	1897.359542	215.7813001	1085.57746	1964.007463	262.812185	1141.781109	1931.619538	286.2683085	1105.466328	2152.76791	602.2696845	1185.616896	2087.791329	604.0939552	1152.749056	2143.989535	711.0482921	1205.582378	2082.926616	712.0233209	1173.809128
5	0.026666667	2264.530697	1030.167272	948.9965472	1924.587506	303.128704	992.1610218	1953.373005	289.523995	942.7435085	1970.104466	325.5599785	992.438627	2194.122146	1101.209772	898.9560053	2080.959885	138.3782187	1009.522562	2045.928331	166.0445901	907.5456799	2093.518564	1061.672779	1001.915051	2079.32213	336.8880618	928.4528147	2053.755808	370.133014	963.9210481	2134.371886	393.424835	914.3311574	2109.425045	426.9351848	948.4245221	2351.438958	630.327893	897.4852546	2288.001206	611.0240529	929.6868396	2308.999549	729.7854175	875.431535	2246.69754	709.7325075	900.6443486	2256.782128	1029.104877	1163.128406	1962.260367	43.45218564	1145.957568	1795.322962	96.36500984	1055.076163	1830.254253	103.6046207	1106.373063	1820.031984	138.637985	1058.936611	2204.09924	1095.850229	1201.199564	1997.367452	46.53989591	1036.964531	2091.935588	1061.130775	1084.480555	1913.946674	196.0312621	1121.251351	1885.236253	221.6347963	1086.948495	1951.20627	269.5810373	1143.050623	1918.946608	292.4986864	1106.311143	2143.336365	609.124799	1185.16065	2078.34533	612.9279177	1152.359769	2138.01301	718.1309386	1204.916994	2077.008005	721.0027538	1173.15252
6	0.033333333	2265.920692	1036.778061	948.069404	1938.569835	284.7814329	995.6352358	1967.978015	272.8325953	946.1494454	1982.549039	310.377005	995.4614389	2194.939871	1108.727371	899.0355019	2106.610825	130.9281	1013.07846	2068.82982	155.5416028	911.0692511	2095.412413	1068.516918	1002.469593	2091.628486	328.3681435	931.2223267	2064.316693	360.3742244	966.5721415	2143.498778	387.7801229	916.6788978	2116.829467	420.0819569	950.6328302	2352.480062	637.0467066	898.6421877	2289.090812	617.720086	930.9181194	2309.823424	736.4215112	876.3427088	2247.687131	716.3863083	901.9588761	2259.755773	1034.1552	1162.313358	1946.821461	44.32476811	1146.503413	1783.525915	106.4499842	1056.068713	1818.667887	111.1895186	1107.579308	1809.993954	147.4802116	1060.766702	2208.715779	1102.596421	1200.791417	1982.157916	46.83864203	1036.860721	2094.609021	1067.728487	1085.211305	1902.457117	202.7379016	1123.104683	1873.958779	227.7758453	1088.308296	1938.985445	276.7247717	1144.458649	1907.048581	299.0348907	1107.152856	2134.199353	616.4081268	1184.973613	2069.305114	622.1418479	1152.135162	2132.271953	725.5763596	1204.417226	2071.441724	730.2921133	1172.535249
7	0.04	2267.410557	1043.405497	946.9967924	1953.835523	266.2670486	999.0334362	1983.786385	256.011236	949.4947993	1996.067788	294.8672673	998.443782	2195.866577	1116.26409	899.1192527	2132.567782	124.0643992	1016.550851	2092.422259	145.4682696	914.537374	2097.494225	1075.430024	1002.971932	2104.437061	319.6416085	933.9705234	2075.467805	350.2306966	969.2563656	2152.858936	381.8188509	918.9974269	2124.560473	412.7430944	952.9098386	2352.791204	643.3477143	899.8734446	2289.432444	624.0431564	932.1905235	2310.080376	742.6993005	877.4156648	2248.068322	722.7668229	903.3741287	2262.894229	1039.300002	1161.266236	1932.024382	45.77457124	1147.21643	1772.672726	117.339418	1057.279456	1807.954964	119.5973781	1108.901429	1800.963662	156.9722012	1062.665759	2213.575707	1109.377783	1200.261963	1967.503109	47.58954459	1036.976239	2097.441733	1074.441578	1085.869907	1891.757339	209.7752349	1125.074005	1863.577283	234.2294061	1089.672929	1927.429216	284.2426	1146.008565	1896.000912	305.8922162	1108.011135	2125.448176	624.0956809	1185.069546	2060.764003	631.6923849	1152.089141	2126.826224	733.3549447	1204.098079	2066.288944	739.8422604	1171.975578
8	0.046666667	2269.005881	1049.997096	945.8042129	1970.422667	247.6723465	1002.347318	2000.824398	239.1485132	952.7667556	2010.696146	279.1026469	1001.377083	2196.90997	1123.764797	899.2173638	2158.795263	117.8559195	1019.906369	2116.678955	135.9109473	917.9222375	2099.750076	1082.357649	1003.423036	2117.748407	310.7454245	936.6776107	2087.225455	339.7448396	971.9596952	2162.458465	375.5483487	921.2752143	2132.639239	404.9304264	955.2455915	2352.355098	649.1433353	901.1719495	2288.999261	629.9113891	933.4848864	2309.763223	748.5391358	878.6389966	2247.825054	728.7936597	904.8581261	2266.169812	1044.513954	1160.013221	1917.919989	47.89548565	1148.106252	1762.715994	128.9703834	1058.745573	1798.080475	128.8069663	1110.375726	1792.858147	167.076945	1064.6561	2218.662038	1116.182098	1199.607114	1953.41892	48.90487841	1037.342833	2100.402098	1081.224709	1086.455199	1881.8268	217.1344045	1127.151035	1854.060814	241.0097113	1091.064735	1916.58551	292.1000302	1147.690046	1885.818125	313.0673831	1108.913245	2117.1871	632.1025061	1185.437225	2052.815803	641.4726601	1152.223266	2121.741667	741.381431	1203.962739	2061.602384	749.5465184	1171.496216
9	0.053333333	2270.707151	1056.483454	944.5354286	1988.307615	229.1252563	1005.572305	2019.056979	222.3698632	955.9535843	2026.4185	263.2012546	1004.252819	2198.072073	1131.154774	899.3394159	2185.232263	112.3653557	1023.108606	2141.526862	126.9585954	921.1926712	2102.15038	1089.224546	1003.826671	2131.534366	301.7436609	939.3212612	2099.576844	328.9973426	974.6639917	2172.290562	369.0015743	923.5003616	2141.072461	396.6919247	957.624118	2351.190418	654.3491538	902.5234393	2287.80096	635.248502	934.7784141	2308.895901	753.8612483	879.9848988	2246.974685	734.3851651	906.3672833	2269.536384	1049.759021	1158.605403	1904.50449	50.77077803	1149.175075	1753.524337	141.2221761	1060.487496	1788.929025	138.7456515	1112.03021	1785.500091	177.7151192	1066.752525	2223.927893	1122.986409	1198.831945	1939.872045	50.89540522	1037.983951	2103.441349	1088.011311	1086.97012	1872.582174	224.794093	1129.316841	1845.306345	248.1263523	1092.508505	1906.464997	300.2391068	1149.481493	1876.458681	320.5455783	1109.890551	2109.53187	640.2924148	1186.04377	2045.554819	651.3236537	1152.528569	2117.091262	749.524209	1204.004262	2057.428907	759.2516385	1171.1233
10	0.06	2272.509742	1062.783287	943.2476762	2007.417774	210.7873778	1008.707315	2038.400269	205.8293264	959.0449978	2043.178201	247.3187289	1007.062437	2199.349063	1138.344	899.4919453	2211.796755	107.6542404	1026.12086	2166.856448	118.7017517	924.3166186	2104.654114	1095.940907	1004.187929	2145.743322	292.7231793	941.8788973	2112.485275	318.0991339	977.3494263	2182.335837	362.2345423	925.661646	2149.852338	388.1057592	960.0257719	2349.342272	658.8886672	903.9081436	2285.875782	639.9897628	936.0489939	2307.525578	758.5899272	881.4118166	2245.561428	739.4653071	907.8532207	2272.93461	1054.987787	1157.112932	1891.714807	54.46888661	1150.418912	1744.901877	153.9384886	1062.501154	1780.319948	149.305333	1113.876383	1778.644027	188.7809362	1068.955781	2229.297239	1129.755543	1197.950492	1926.783307	53.65963343	1038.912227	2106.500268	1094.719125	1087.420395	1863.891729	232.7285104	1131.543755	1837.156791	255.5887357	1094.026379	1897.043027	308.590283	1151.353529	1867.836105	328.3070209	1110.973403	2102.605126	648.4926094	1186.840416	2039.073852	661.0507928	1152.988704	2112.954178	757.6191882	1204.208208	2053.811649	768.7735983	1170.884667
